# AST/ASF file generated using VICON BodyLanguage
# -----------------------------------------------
:version 1.10
:name VICON
:units
  mass 1.0
  length 0.45
  angle deg
:documentation
   .ast/.asf automatically generated from VICON data using
   VICON BodyBuilder and BodyLanguage model FoxedUp or BRILLIANT.MOD
:root
   order TX TY TZ RX RY RZ
   axis XYZ
   position 0 0 0  
   orientation 0 0 0 
:bonedata
  begin
     id 1 
     name lhipjoint
     direction 0.678564 -0.644259 0.352817 
     length 2.99514 
     axis 0 0 0  XYZ
  end
  begin
     id 2 
     name lfemur
     direction 0.34202 -0.939693 0  
     length 7.29983  
     axis 0 0 20  XYZ
    dof rx ry rz
    limits (-160.0 20.0)
           (-70.0 70.0)
           (-60.0 70.0)
  end
  begin
     id 3 
     name ltibia
     direction 0.34202 -0.939693 0   
     length 8.59502   
     axis 0 0 20   XYZ
    dof rx
    limits (-10.0 170.0)
  end
  begin
     id 4 
     name lfoot
     direction 0.256607 -0.705022 0.661133   
     length 2.92136   
     axis -90 7.62852e-016 20   XYZ
    dof rx rz
    limits (-45.0 90.0)
           (-70.0 20.0)
  end
  begin
     id 5 
     name ltoes
     direction 1.53673e-011 -4.22167e-011 1   
     length 1.31421   
     axis -90 7.62852e-016 20   XYZ
    dof rx
    limits (-90.0 20.0)
  end
  begin
     id 6 
     name rhipjoint
     direction -0.664671 -0.655307 0.358867   
     length 2.94464  
     axis 0 0 0  XYZ 
  end
  begin
     id 7 
     name rfemur
     direction -0.34202 -0.939693 0   
     length 7.1902   
     axis 0 0 -20   XYZ
    dof rx ry rz
    limits (-160.0 20.0)
           (-70.0 70.0)
           (-70.0 60.0)
  end
  begin
     id 8 
     name rtibia
     direction -0.342306 -0.939589 0   
     length 7.92304   
     axis 0 0 -20   XYZ
    dof rx
    limits (-10.0 170.0)
 end
 begin
     id 9 
     name rfoot
     direction -0.135083 -0.371136 0.9187   
     length 2.14777  
     axis -90 -7.62852e-016 -20   XYZ
    dof rx rz
    limits (-45.0 90.0)
           (-20.0 70.0)
  end
  begin
     id 10 
     name rtoes
     direction -1.53535e-011 -4.21537e-011 1   
     length 1.05997   
     axis -90 -7.62852e-016 -20   XYZ
    dof rx
    limits (-90.0 20.0)
  end
  begin
     id 11 
     name lowerback
     direction -0.0195507 0.995133 0.0965771   
     length 2.09792   
     axis 0 0 0   XYZ
    dof rx ry rz
    limits (-20.0 45.0)
           (-30.0 30.0)
           (-30.0 30.0)
  end
  begin
     id 12 
     name upperback
     direction 0.00551419 0.999637 0.0263729   
     length 2.10514   
     axis 0 0 0   XYZ
    dof rx ry rz
    limits (-20.0 45.0)
           (-30.0 30.0)
           (-30.0 30.0)
  end
  begin
     id 13 
     name thorax
     direction 0.0138853 0.999728 -0.0187549   
     length 2.12411   
     axis 0 0 0   XYZ
    dof rx ry rz
    limits (-20.0 45.0)
           (-30.0 30.0)
           (-30.0 30.0)
  end
  begin
     id 14 
     name lowerneck
     direction 0.00575564 0.995441 0.0952053   
     length 2.98955   
     axis 0 0 0   XYZ
    dof rx ry rz
    limits (-20.0 45.0)
           (-30.0 30.0)
           (-30.0 30.0)
  end
  begin
     id 15 
     name upperneck
     direction 0.0362743 0.998452 -0.0421753   
     length 3.03688   
     axis 0 0 0   XYZ
    dof rx ry rz
    limits (-20.0 45.0)
           (-30.0 30.0)
           (-30.0 30.0)
  end
  begin
     id 16
     name head
     direction -0.0138164 0.799054 0.6011  
     length 1.47017  
     axis 0 0 0   XYZ
    dof rx ry rz
    limits (-20.0 45.0)
           (-30.0 30.0)
           (-30.0 30.0)
  end
  begin
     id 17 
     name lclavicle
     direction 0.925636 0.378361 -0.006363  
     length 3.33831  
     axis 0 0 0   XYZ
    dof ry rz
    limits (-20.0 10.0)
           (0.0 20.0)
  end
  begin
     id 18 
     name lhumerus
     direction 1 -4.48983e-011 -5.50319e-028   
     length 4.79344   
     axis -180 -30 -90   XYZ
    dof rx ry rz
    limits (-60.0 90.0)
           (-90.0 90.0)
           (-90.0 90.0)
  end
  begin
     id 19
     name lradius
     direction 1 -4.48905e-011 9.20478e-027   
     length 2.94221   
     axis -180 -30 -90   XYZ
    dof rx
    limits (-10.0 170.0)
  end
  begin
     id 20
     name lwrist
     direction 1 -4.4898e-011 2.08228e-026   
     length 1.4711   
     axis -1.38353e-014 90 90   XYZ
    dof ry
    limits (-180.0 0.0)
 end
  begin
     id 21 
     name lhand
     direction 1 -4.48957e-011 4.16456e-026   
     length 0.889984   
     axis -2.65735e-014 90 90   XYZ
    dof rx rz
    limits (-90.0 90.0)
           (-45.0 45.0)
  end
  begin
     id 22 
     name lfingers
     direction 1 -4.49044e-011 8.32913e-026   
     length 0.717528   
     axis -5.3147e-014 90 90   XYZ
    dof rx
    limits (0.0 90.0)
  end
  begin
     id 23
     name lthumb
     direction 0.707107 -6.35171e-011 0.707107   
     length 1.03023   
     axis -90 45 2.85299e-015   XYZ
    dof rx rz
    limits (-45.0 45.0)
           (-45.0 45.0)
  end
  begin
     id 24 
     name rclavicle
     direction -0.892514 0.445149 0.0725343   
     length 3.17271  
     axis 0 0 0   XYZ 
    dof ry rz
    limits (-10.0 20.0)
           (-20.0 0.0)
  end
  begin
     id 25 
     name rhumerus
     direction -1 -4.48952e-011 5.59695e-028  
     length 5.4863   
     axis -180 30 90   XYZ
    dof rx ry rz
    limits (-90.0 60.0)
           (-90.0 90.0)
           (-90.0 90.0)
  end
  begin
     id 26 
     name rradius
     direction -1 -4.48963e-011 1.14146e-026   
     length 3.17201   
     axis -180 30 90   XYZ
    dof rx
    limits (-10.0 170.0)
  end
  begin
     id 27 
     name rwrist
     direction -1 -4.49046e-011 2.08228e-026   
     length 1.58601   
     axis -1.38353e-014 -90 -90   XYZ
    dof ry
    limits (-180.0 0.0)
  end
  begin
     id 28
     name rhand
     direction -1 -4.48815e-011 4.16456e-026   
     length 0.874513   
     axis -2.65735e-014 -90 -90   XYZ
    dof rx rz
    limits (-90.0 90.0)
           (-45.0 45.0)
  end
  begin
     id 29
     name rfingers
     direction -1 -4.48918e-011 8.32913e-026   
     length 0.705055   
     axis -5.3147e-014 -90 -90   XYZ
    dof rx
    limits (0.0 90.0)
  end
  begin
     id 30
     name rthumb
     direction -0.707107 -6.34858e-011 0.707107   
     length 1.01232   
     axis -90 -45 -2.85299e-015   XYZ
    dof rx rz
    limits (-45.0 45.0)
           (-45.0 45.0)
  end
:hierarchy
  begin
    root lhipjoint rhipjoint lowerback
    lhipjoint lfemur
    lfemur ltibia
    ltibia lfoot
    lfoot ltoes
    rhipjoint rfemur
    rfemur rtibia
    rtibia rfoot
    rfoot rtoes
    lowerback upperback
    upperback thorax
    thorax lowerneck lclavicle rclavicle
    lowerneck upperneck
    upperneck head
    lclavicle lhumerus
    lhumerus lradius
    lradius lwrist
    lwrist lhand lthumb
    lhand lfingers
    rclavicle rhumerus
    rhumerus rradius
    rradius rwrist
    rwrist rhand rthumb
    rhand rfingers
  end

#!OML:ASF F:\VICON\USERDATA\INSTALL\rory3\rory3.ASF
:FULLY-SPECIFIED
:DEGREES
1
root 3.32769 18.5056 -0.646887 -1.24089 86.6836 -15.4293
lowerback -11.2518 -0.871547 -1.0951
upperback -3.46078 -0.969241 1.66346
thorax 2.74246 -0.426395 2.21811
lowerneck -21.3716 -9.0251 0.606133
upperneck 3.40556 42.2464 2.20033
head 28.4167 39.8528 179.518
rclavicle -2.49723e-015 1.17283e-014
rhumerus -41.6931 26.8529 -90.9642
rradius 38.4452
rwrist 5.64635
rhand -18.5491 -5.82152
rfingers 7.12502
rthumb 7.74039 -35.6598
lclavicle -2.49723e-015 1.17283e-014
lhumerus -35.3655 -13.6462 88.4113
lradius 36.7728
lwrist 4.25154
lhand -9.59919 8.69339
lfingers 7.12502
lthumb 16.3696 38.0226
rfemur -13.2004 18.6034 17.9212
rtibia 10.8642
rfoot -17.2442 -17.8525
rtoes -13.5344
lfemur -14.0362 -3.5808 -21.6173
ltibia 16.2971
lfoot -1.99739 3.98428
ltoes -9.67459
2
root 3.32563 18.5059 -0.649679 -1.69122 86.7511 -15.8787
lowerback -11.2464 -0.892526 -1.05294
upperback -3.45537 -1.00296 1.70026
thorax 2.74668 -0.443098 2.2281
lowerneck -21.4358 -8.97093 0.592863
upperneck 3.44857 42.5166 2.22009
head 28.5303 40.04 179.528
rclavicle 1.42255e-014 -6.36111e-015
rhumerus -41.7015 26.9873 -90.9407
rradius 38.3225
rwrist 5.6546
rhand -18.5914 -5.686
rfingers 7.12502
rthumb 7.69957 -35.5258
lclavicle 1.42255e-014 -6.36111e-015
lhumerus -35.4213 -13.6146 88.5072
lradius 36.6955
lwrist 4.0257
lhand -9.6433 8.57967
lfingers 7.12502
lthumb 16.3271 37.9124
rfemur -13.2114 18.5142 17.9393
rtibia 10.9068
rfoot -17.2692 -17.8287
rtoes -13.4561
lfemur -14.0305 -3.6793 -21.6007
ltibia 16.2572
lfoot -1.94239 3.93897
ltoes -9.6898
3
root 3.32455 18.5072 -0.652626 -1.56421 86.7833 -15.7285
lowerback -11.2246 -0.898221 -1.02525
upperback -3.45037 -1.01449 1.71834
thorax 2.74033 -0.448858 2.22987
lowerneck -21.4787 -8.94182 0.582843
upperneck 3.47428 42.6953 2.22741
head 28.6181 40.1782 179.561
rclavicle 9.06955e-015 -9.14409e-015
rhumerus -41.7361 27.1164 -90.9653
rradius 38.2019
rwrist 5.67338
rhand -18.669 -5.67392
rfingers 7.12502
rthumb 7.62462 -35.5165
lclavicle 9.06955e-015 -9.14409e-015
lhumerus -35.4587 -13.6101 88.6002
lradius 36.6427
lwrist 4.01307
lhand -9.61703 8.52078
lfingers 7.12502
lthumb 16.3524 37.8514
rfemur -13.1471 18.4343 17.9338
rtibia 10.8407
rfoot -17.1759 -17.8103
rtoes -13.6262
lfemur -14.0056 -3.59089 -21.6369
ltibia 16.2306
lfoot -2.03229 3.97785
ltoes -9.65522
4
root 3.32397 18.5076 -0.655826 -2.15843 86.8188 -16.3211
lowerback -11.2272 -0.867372 -0.926436
upperback -3.45979 -0.983679 1.72143
thorax 2.72898 -0.432957 2.18145
lowerneck -21.4555 -8.9739 0.554673
upperneck 3.48143 42.6787 2.22877
head 28.6207 40.2036 179.564
rclavicle 1.90088e-015 -1.98785e-015
rhumerus -41.8064 27.1384 -90.9678
rradius 38.1276
rwrist 5.69621
rhand -18.6471 -5.72685
rfingers 7.12502
rthumb 7.64578 -35.5686
lclavicle 1.90088e-015 -1.98785e-015
lhumerus -35.5062 -13.7792 88.7359
lradius 36.5814
lwrist 4.03829
lhand -9.50377 8.53483
lfingers 7.12502
lthumb 16.4615 37.8564
rfemur -13.1147 18.4155 17.956
rtibia 10.7879
rfoot -17.1365 -17.8486
rtoes -13.8942
lfemur -14.0133 -3.56898 -21.6219
ltibia 16.2269
lfoot -2.1108 3.99539
ltoes -9.72301
5
root 3.32248 18.5089 -0.657981 -1.60542 86.9128 -15.7799
lowerback -11.2262 -0.861033 -0.911935
upperback -3.48103 -0.975081 1.70018
thorax 2.70537 -0.428018 2.15238
lowerneck -21.4398 -8.99866 0.540199
upperneck 3.49403 42.6729 2.2411
head 28.6169 40.2158 179.537
rclavicle 3.90115e-015 2.06736e-014
rhumerus -41.8875 27.2282 -90.9887
rradius 38.061
rwrist 5.66054
rhand -18.6893 -5.75484
rfingers 7.12502
rthumb 7.60506 -35.5981
lclavicle 3.90115e-015 2.06736e-014
lhumerus -35.5554 -13.9746 88.8597
lradius 36.4881
lwrist 4.0414
lhand -9.47738 8.60106
lfingers 7.12502
lthumb 16.4869 37.9206
rfemur -13.0996 18.4068 17.8892
rtibia 10.7292
rfoot -17.1206 -17.9322
rtoes -13.9452
lfemur -14.0334 -3.8175 -21.6527
ltibia 16.2337
lfoot -1.97914 3.96952
ltoes -9.76264
6
root 3.31879 18.5087 -0.658185 -2.22368 86.9925 -16.4149
lowerback -11.1761 -0.842243 -0.827438
upperback -3.54719 -0.955368 1.66526
thorax 2.60632 -0.416134 2.07163
lowerneck -21.3851 -9.04412 0.605456
upperneck 3.5476 42.7531 2.28513
head 28.6998 40.2794 179.592
rclavicle -2.49723e-015 6.36111e-015
rhumerus -42.0065 27.159 -91.0315
rradius 37.9703
rwrist 5.74336
rhand -18.6889 -5.71301
rfingers 7.12502
rthumb 7.6054 -35.5563
lclavicle -2.49723e-015 6.36111e-015
lhumerus -35.6741 -14.2085 88.9644
lradius 36.3633
lwrist 3.95264
lhand -9.44788 8.72604
lfingers 7.12502
lthumb 16.5153 38.0432
rfemur -13.0661 18.4211 17.8988
rtibia 10.6357
rfoot -17.0775 -18.0039
rtoes -14.0328
lfemur -14.0877 -3.87303 -21.6181
ltibia 16.2698
lfoot -1.98112 3.97129
ltoes -9.66748
7
root 3.31555 18.5099 -0.658005 -2.52668 87.0268 -16.725
lowerback -11.1438 -0.806106 -0.768384
upperback -3.58188 -0.911726 1.65055
thorax 2.54957 -0.393302 2.02915
lowerneck -21.3757 -9.07942 0.630262
upperneck 3.59274 42.8929 2.31225
head 28.8226 40.4436 179.684
rclavicle 6.4605e-016 2.38542e-015
rhumerus -42.0889 27.1081 -91.0139
rradius 37.8948
rwrist 5.81619
rhand -18.7069 -5.75172
rfingers 7.12502
rthumb 7.58807 -35.5956
lclavicle 6.4605e-016 2.38542e-015
lhumerus -35.7331 -14.3896 89.091
lradius 36.225
lwrist 3.8037
lhand -9.42878 8.8043
lfingers 7.12502
lthumb 16.5337 38.1199
rfemur -13.0732 18.4332 17.9074
rtibia 10.6153
rfoot -17.0422 -18.0703
rtoes -14.113
lfemur -14.1386 -3.68582 -21.6203
ltibia 16.3032
lfoot -2.21508 4.02794
ltoes -9.72048
8
root 3.3138 18.5112 -0.659206 -3.19189 87.0551 -17.395
lowerback -11.1596 -0.758943 -0.685305
upperback -3.54983 -0.859215 1.6474
thorax 2.58812 -0.368021 1.98569
lowerneck -21.4702 -9.11206 0.627066
upperneck 3.545 42.8143 2.28319
head 28.8069 40.4059 179.679
rclavicle 7.87684e-015 -1.07344e-014
rhumerus -42.0206 27.0434 -90.8945
rradius 37.7946
rwrist 5.95404
rhand -18.6811 -5.81882
rfingers 7.12502
rthumb 7.61293 -35.6618
lclavicle 7.87684e-015 -1.07344e-014
lhumerus -35.702 -14.5341 89.1833
lradius 36.1229
lwrist 3.62194
lhand -9.33619 8.74439
lfingers 7.12502
lthumb 16.6228 38.0525
rfemur -13.0916 18.4626 17.9294
rtibia 10.6272
rfoot -17.071 -18.1271
rtoes -13.9245
lfemur -14.1815 -3.5874 -21.6057
ltibia 16.3602
lfoot -2.34485 4.10349
ltoes -9.79698
9
root 3.31131 18.5117 -0.659418 -3.09595 87.0853 -17.308
lowerback -11.1407 -0.734014 -0.66593
upperback -3.56244 -0.827034 1.62524
thorax 2.56279 -0.351693 1.95612
lowerneck -21.4789 -9.15086 0.661075
upperneck 3.52155 42.6786 2.28477
head 28.75 40.293 179.637
rclavicle -6.83322e-016 -3.18055e-015
rhumerus -42.0351 26.9189 -90.8176
rradius 37.7364
rwrist 6.17873
rhand -18.5923 -5.895
rfingers 7.12502
rthumb 7.69863 -35.7349
lclavicle -6.83322e-016 -3.18055e-015
lhumerus -35.8034 -14.712 89.2673
lradius 36.102
lwrist 3.61572
lhand -9.2769 8.72814
lfingers 7.12502
lthumb 16.6799 38.0315
rfemur -13.1395 18.4692 17.9148
rtibia 10.6927
rfoot -17.1522 -18.1774
rtoes -14.0604
lfemur -14.213 -3.53205 -21.6172
ltibia 16.3664
lfoot -2.42718 4.12541
ltoes -9.75333
10
root 3.30965 18.5118 -0.660273 -3.30229 87.1181 -17.4959
lowerback -11.109 -0.72526 -0.63526
upperback -3.5701 -0.818178 1.6131
thorax 2.53655 -0.347112 1.92756
lowerneck -21.4703 -9.19087 0.717866
upperneck 3.50756 42.5905 2.28157
head 28.7435 40.2079 179.674
rclavicle 5.46658e-016 7.15625e-015
rhumerus -42.0564 26.8767 -90.7757
rradius 37.6623
rwrist 6.30452
rhand -18.592 -5.88232
rfingers 7.12502
rthumb 7.69893 -35.7222
lclavicle 5.46658e-016 7.15625e-015
lhumerus -35.8709 -14.7916 89.3348
lradius 36.0444
lwrist 3.68745
lhand -9.29788 8.74522
lfingers 7.12502
lthumb 16.6597 38.0503
rfemur -13.1493 18.4427 17.9224
rtibia 10.7441
rfoot -17.2315 -18.1973
rtoes -13.8347
lfemur -14.219 -3.48931 -21.6174
ltibia 16.378
lfoot -2.49507 4.16256
ltoes -9.73866
11
root 3.309 18.5133 -0.66176 -2.76025 87.1885 -16.9643
lowerback -11.1443 -0.737673 -0.645158
upperback -3.55816 -0.833677 1.60515
thorax 2.56891 -0.355192 1.92258
lowerneck -21.5081 -9.21178 0.768806
upperneck 3.48078 42.5406 2.26099
head 28.7445 40.1049 179.711
rclavicle 1.83876e-015 -1.66979e-014
rhumerus -42.0463 26.9417 -90.7493
rradius 37.5893
rwrist 6.2752
rhand -18.691 -5.87413
rfingers 7.12502
rthumb 7.60337 -35.7175
lclavicle 1.83876e-015 -1.66979e-014
lhumerus -35.9013 -14.7426 89.3616
lradius 36.0039
lwrist 3.63427
lhand -9.21858 8.76705
lfingers 7.12502
lthumb 16.736 38.0657
rfemur -13.1948 18.4568 17.8637
rtibia 10.8196
rfoot -17.2445 -18.2748
rtoes -13.7118
lfemur -14.2383 -3.52818 -21.6634
ltibia 16.3747
lfoot -2.52626 4.17769
ltoes -9.72
12
root 3.30778 18.5125 -0.661975 -3.39163 87.2686 -17.5962
lowerback -11.1348 -0.738414 -0.610429
upperback -3.56712 -0.83798 1.61028
thorax 2.55414 -0.356979 1.90783
lowerneck -21.5274 -9.23128 0.781033
upperneck 3.47547 42.5266 2.26007
head 28.75 40.0915 179.713
rclavicle -2.34814e-015 -8.74653e-015
rhumerus -42.0813 26.9806 -90.7109
rradius 37.537
rwrist 6.29052
rhand -18.667 -5.85189
rfingers 7.12502
rthumb 7.62654 -35.6944
lclavicle -2.34814e-015 -8.74653e-015
lhumerus -36.0225 -14.7619 89.4085
lradius 36.0295
lwrist 3.49375
lhand -9.0938 8.76867
lfingers 7.12502
lthumb 16.8561 38.0571
rfemur -13.2157 18.5786 17.8631
rtibia 10.8923
rfoot -17.2942 -18.4388
rtoes -13.7099
lfemur -14.2311 -3.53475 -21.6479
ltibia 16.3391
lfoot -2.57618 4.14744
ltoes -9.66805
13
root 3.30616 18.5116 -0.664135 -3.43531 87.3492 -17.6408
lowerback -11.1092 -0.753982 -0.612246
upperback -3.56383 -0.859321 1.63402
thorax 2.54479 -0.367553 1.93089
lowerneck -21.5778 -9.24518 0.783019
upperneck 3.43495 42.4678 2.21963
head 28.7297 39.9853 179.733
rclavicle 5.67779e-015 -5.96354e-015
rhumerus -42.0453 27.0215 -90.5919
rradius 37.5106
rwrist 6.30626
rhand -18.6082 -5.84514
rfingers 7.12502
rthumb 7.68334 -35.6856
lclavicle 5.67779e-015 -5.96354e-015
lhumerus -36.0942 -14.7446 89.4795
lradius 36.0291
lwrist 3.39361
lhand -9.01645 8.84996
lfingers 7.12502
lthumb 16.9306 38.132
rfemur -13.2375 18.562 17.8409
rtibia 10.9545
rfoot -17.3699 -18.492
rtoes -13.7371
lfemur -14.2244 -3.53115 -21.6749
ltibia 16.2963
lfoot -2.68205 4.15828
ltoes -9.7287
